<svg width="25" height="24" viewBox="0 0 25 24" fill="none" xmlns="http://www.w3.org/2000/svg">
<path d="M17.1675 22.75H7.06898C2.61553 22.75 1.26233 21.41 1.26233 17V7C1.26233 2.59 2.61553 1.25 7.06898 1.25H8.58376C10.351 1.25 10.9064 1.82 11.6133 2.75L13.1281 4.75C13.4613 5.19 13.5118 5.25 14.1379 5.25H17.1675C21.6209 5.25 22.9742 6.59 22.9742 11V17C22.9742 21.41 21.6209 22.75 17.1675 22.75ZM7.06898 2.75C3.46381 2.75 2.77711 3.43 2.77711 7V17C2.77711 20.57 3.46381 21.25 7.06898 21.25H17.1675C20.7727 21.25 21.4594 20.57 21.4594 17V11C21.4594 7.43 20.7727 6.75 17.1675 6.75H14.1379C12.8453 6.75 12.4212 6.31 11.9163 5.65L10.4015 3.65C9.87637 2.96 9.72489 2.75 8.58376 2.75H7.06898V2.75Z" fill="#36A025"/>
</svg>
