<svg width="60" height="60" viewBox="0 0 60 60" fill="none" xmlns="http://www.w3.org/2000/svg">
<path d="M50.9499 52.825C50.4499 52.825 49.9749 52.625 49.6249 52.275L33.6749 36.325C32.9499 35.6 32.9499 34.4 33.6749 33.675L52.9999 14.35C53.4749 13.875 54.1999 13.7 54.8499 13.875C55.4999 14.075 55.9998 14.6 56.1498 15.25C56.6248 17.375 56.8748 19.75 56.8748 22.5V37.5C56.8748 44.425 55.4249 49.1 52.2749 52.275C51.9249 52.625 51.3999 52.7 50.9499 52.825ZM37.6498 35L50.7999 48.15C52.3749 45.725 53.1249 42.275 53.1249 37.5V22.5C53.1249 21.475 53.0998 20.525 53.0248 19.625L37.6498 35Z" fill="#ED7F2F"/>
<path d="M15.675 56.2C15.525 56.2 15.4 56.175 15.25 56.15C6.97502 54.25 3.125 48.325 3.125 37.5V22.5C3.125 8.925 8.925 3.125 22.5 3.125H37.5C48.325 3.125 54.25 6.97502 56.15 15.25C56.3 15.875 56.1 16.55 55.65 17L17 55.65C16.65 56 16.175 56.2 15.675 56.2ZM22.5 6.875C10.975 6.875 6.875 10.975 6.875 22.5V37.5C6.875 46.175 9.27502 50.525 15.1 52.25L52.225 15.125C50.525 9.30001 46.15 6.89999 37.475 6.89999H22.5V6.875Z" fill="#2F80ED"/>
<path d="M37.4997 56.875H22.4997C19.7497 56.875 17.3997 56.65 15.2497 56.15C14.5747 56 14.0497 55.5 13.8747 54.85C13.6747 54.2 13.8747 53.5 14.3497 53L33.6747 33.675C34.3997 32.95 35.5997 32.95 36.3247 33.675L52.2747 49.625C52.6247 49.975 52.8247 50.45 52.8247 50.95C52.8247 51.45 52.6247 51.925 52.2747 52.275C49.0997 55.425 44.4247 56.875 37.4997 56.875ZM19.6247 53.025C20.5247 53.1 21.4747 53.125 22.4997 53.125H37.4997C42.2997 53.125 45.7247 52.375 48.1497 50.8L34.9997 37.65L19.6247 53.025Z" fill="#36A025"/>
<path d="M22.7999 33.275C21.2249 33.275 19.6498 32.7 18.3998 31.525C14.4248 27.75 12.8249 23.6 13.7749 19.55C14.7249 15.4 18.3499 12.6 22.7999 12.6C27.2499 12.6 30.8749 15.4 31.8249 19.55C32.7499 23.625 31.1499 27.75 27.1749 31.525C25.9499 32.675 24.3749 33.275 22.7999 33.275ZM17.4249 20.375C16.6249 23.775 18.9248 26.825 20.9999 28.8C22.0248 29.775 23.5999 29.775 24.5999 28.8C26.6499 26.85 28.9498 23.8 28.1748 20.375C27.4998 17.4 24.8499 16.325 22.7999 16.325C20.7499 16.325 18.1249 17.4 17.4249 20.375Z" fill="#2F80ED"/>
<path d="M22.8748 23.725C21.4998 23.725 20.3748 22.6 20.3748 21.225C20.3748 19.85 21.4748 18.725 22.8748 18.725H22.8998C24.2748 18.725 25.3998 19.85 25.3998 21.225C25.3998 22.6 24.2498 23.725 22.8748 23.725Z" fill="#2F80ED"/>
</svg>
